<svg width="44" height="44" viewBox="0 0 44 44" fill="none" xmlns="http://www.w3.org/2000/svg">
<path d="M21.1766 44.0003C22.5411 44.0003 23.6472 42.9648 23.6472 41.6874C23.6472 40.41 22.5411 39.3745 21.1766 39.3745C19.8122 39.3745 18.7061 40.41 18.7061 41.6874C18.7061 42.9648 19.8122 44.0003 21.1766 44.0003Z" fill="white"/>
<path d="M9.8827 44.0003C11.2472 44.0003 12.3533 42.9648 12.3533 41.6874C12.3533 40.41 11.2472 39.3745 9.8827 39.3745C8.51823 39.3745 7.41211 40.41 7.41211 41.6874C7.41211 42.9648 8.51823 44.0003 9.8827 44.0003Z" fill="white"/>
<path d="M5.06824 19.4703L4.78588 22.7083C4.72941 23.3295 5.25176 23.8449 5.91529 23.8449H27.5294C28.1224 23.8449 28.6165 23.422 28.6588 22.8669C28.8424 20.5276 26.9365 18.6244 24.4376 18.6244H7.08706C6.94588 18.0429 6.66353 17.4878 6.22588 17.0252C5.52 16.3247 4.53176 15.915 3.51529 15.915H1.05882C0.48 15.915 0 16.3644 0 16.9063C0 17.4481 0.48 17.8975 1.05882 17.8975H3.51529C3.95294 17.8975 4.36235 18.0693 4.65882 18.3601C4.95529 18.6641 5.09647 19.0606 5.06824 19.4703Z" fill="white"/>
<path d="M27.1902 25.8271H5.53368C4.94073 25.8271 4.46073 26.2501 4.40426 26.7919L3.89603 32.5411C3.69838 34.8011 5.59015 36.7307 8.00426 36.7307H23.7032C25.8208 36.7307 27.6843 35.1051 27.8396 33.1226L28.3055 26.9505C28.362 26.3426 27.8537 25.8271 27.1902 25.8271Z" fill="white"/>
<ellipse cx="36.5" cy="8.8938" rx="7.5" ry="7.02124" fill="#00FF38"/>
<path d="M38.2784 11.512V13H35.7504V11.512H36.2944V4.888H35.7184L36.0384 3.4H37.8144V11.512H38.2784Z" fill="white"/>
</svg>
