<svg width="44" height="47" viewBox="0 0 44 47" fill="none" xmlns="http://www.w3.org/2000/svg">
<path d="M21.1766 47.0003C22.5411 47.0003 23.6472 45.8941 23.6472 44.5297C23.6472 43.1652 22.5411 42.0591 21.1766 42.0591C19.8122 42.0591 18.7061 43.1652 18.7061 44.5297C18.7061 45.8941 19.8122 47.0003 21.1766 47.0003Z" fill="black"/>
<path d="M9.8827 47.0003C11.2472 47.0003 12.3533 45.8941 12.3533 44.5297C12.3533 43.1652 11.2472 42.0591 9.8827 42.0591C8.51823 42.0591 7.41211 43.1652 7.41211 44.5297C7.41211 45.8941 8.51823 47.0003 9.8827 47.0003Z" fill="black"/>
<path d="M5.06824 20.7976L4.78588 24.2565C4.72941 24.92 5.25176 25.4706 5.91529 25.4706H27.5294C28.1224 25.4706 28.6165 25.0188 28.6588 24.4259C28.8424 21.9271 26.9365 19.8941 24.4376 19.8941H7.08706C6.94588 19.2729 6.66353 18.68 6.22588 18.1859C5.52 17.4376 4.53176 17 3.51529 17H1.05882C0.48 17 0 17.48 0 18.0588C0 18.6376 0.48 19.1176 1.05882 19.1176H3.51529C3.95294 19.1176 4.36235 19.3012 4.65882 19.6118C4.95529 19.9365 5.09647 20.36 5.06824 20.7976Z" fill="black"/>
<path d="M27.1902 27.5879H5.53368C4.94073 27.5879 4.46073 28.0397 4.40426 28.6185L3.89603 34.7597C3.69838 37.1738 5.59015 39.235 8.00426 39.235H23.7032C25.8208 39.235 27.6843 37.4985 27.8396 35.3808L28.3055 28.7879C28.362 28.1385 27.8537 27.5879 27.1902 27.5879Z" fill="black"/>
<circle cx="36.5" cy="9.5" r="7.5" fill="#00FF38"/>
<path d="M38.2784 12.512V14H35.7504V12.512H36.2944V5.888H35.7184L36.0384 4.4H37.8144V12.512H38.2784Z" fill="white"/>
</svg>
