<svg width="63" height="63" viewBox="0 0 63 63" fill="none" xmlns="http://www.w3.org/2000/svg">
<path d="M31.4518 62.9037C14.1021 62.9037 0 48.8015 0 31.4518C0 14.1021 14.1021 0 31.4518 0C48.8015 0 62.9037 14.1021 62.9037 31.4518C62.9037 48.8015 48.8015 62.9037 31.4518 62.9037ZM31.4518 4.38863C16.5305 4.38863 4.38863 16.5305 4.38863 31.4518C4.38863 46.3732 16.5305 58.515 31.4518 58.515C46.3732 58.515 58.515 46.3732 58.515 31.4518C58.515 16.5305 46.3732 4.38863 31.4518 4.38863Z" fill="black"/>
<path d="M23.1699 41.9269C22.614 41.9269 22.0581 41.7221 21.6193 41.2832C20.7708 40.4347 20.7708 39.0304 21.6193 38.1819L38.1791 21.6222C39.0275 20.7737 40.4319 20.7737 41.2804 21.6222C42.1288 22.4707 42.1288 23.875 41.2804 24.7235L24.7205 41.2832C24.3109 41.7221 23.7258 41.9269 23.1699 41.9269Z" fill="black"/>
<path d="M39.7297 41.9269C39.1738 41.9269 38.6179 41.7221 38.1791 41.2832L21.6193 24.7235C20.7708 23.875 20.7708 22.4707 21.6193 21.6222C22.4677 20.7737 23.8721 20.7737 24.7205 21.6222L41.2804 38.1819C42.1288 39.0304 42.1288 40.4347 41.2804 41.2832C40.8415 41.7221 40.2856 41.9269 39.7297 41.9269Z" fill="black"/>
</svg>
